<mxfile host="app.diagrams.net" modified="2023-09-20T19:27:20.460Z" agent="Mozilla/5.0 (X11; Linux x86_64) AppleWebKit/537.36 (KHTML, like Gecko) Chrome/117.0.0.0 Safari/537.36" etag="jyD-EQ1hKuDH8Qkp1r8q" version="21.2.0" type="device">
  <diagram name="Page-1" id="sNa2fze8wqNwJBOPS1-w">
    <mxGraphModel dx="594" dy="648" grid="1" gridSize="10" guides="1" tooltips="1" connect="1" arrows="1" fold="1" page="1" pageScale="1" pageWidth="850" pageHeight="1100" math="0" shadow="0">
      <root>
        <mxCell id="0" />
        <mxCell id="1" parent="0" />
      </root>
    </mxGraphModel>
  </diagram>
</mxfile>
